<svg width="50" height="48" viewBox="0 0 50 48" fill="none" xmlns="http://www.w3.org/2000/svg">
<rect width="50" height="48" fill="#410095"/>
<rect x="7" y="7" width="12" height="12" fill="#8F00FF"/>
<rect x="31" y="30" width="12" height="12" fill="#8F00FF"/>
<path d="M23.7901 39H13.4776V9.90909H23.8754C26.8015 9.90909 29.3204 10.4915 31.4322 11.6562C33.5439 12.8116 35.168 14.4735 36.3043 16.642C37.4502 18.8106 38.0231 21.4053 38.0231 24.4261C38.0231 27.4564 37.4502 30.0606 36.3043 32.2386C35.168 34.4167 33.5344 36.0881 31.4038 37.2528C29.2826 38.4176 26.7447 39 23.7901 39ZM19.6282 33.7301H23.5344C25.3526 33.7301 26.882 33.4081 28.1225 32.7642C29.3725 32.1108 30.31 31.1023 30.935 29.7386C31.5695 28.3655 31.8867 26.5947 31.8867 24.4261C31.8867 22.2765 31.5695 20.5199 30.935 19.1562C30.31 17.7926 29.3772 16.7888 28.1367 16.1449C26.8962 15.5009 25.3668 15.179 23.5487 15.179H19.6282V33.7301Z" fill="white"/>
<rect x="7" y="30" width="12" height="12" fill="#8F00FF"/>
<rect x="31" y="7" width="12" height="12" fill="#8F00FF"/>
</svg>
